<svg width="9" height="16" viewBox="0 0 9 16" fill="none" xmlns="http://www.w3.org/2000/svg">
<path d="M4.82497 6.68569C2.9333 6.19402 2.32497 5.68569 2.32497 4.89402C2.32497 3.98569 3.16663 3.35236 4.57497 3.35236C6.0583 3.35236 6.6083 4.06069 6.6583 5.10236H8.49997C8.44163 3.66902 7.56663 2.35236 5.82497 1.92736V0.102356H3.32497V1.90236C1.7083 2.25236 0.408301 3.30236 0.408301 4.91069C0.408301 6.83569 1.99997 7.79402 4.32497 8.35236C6.4083 8.85236 6.82497 9.58569 6.82497 10.3607C6.82497 10.9357 6.41663 11.8524 4.57497 11.8524C2.8583 11.8524 2.1833 11.0857 2.09163 10.1024H0.258301C0.358301 11.9274 1.72497 12.9524 3.32497 13.294V15.1024H5.82497V13.3107C7.44997 13.0024 8.74163 12.0607 8.74163 10.3524C8.74163 7.98569 6.71663 7.17736 4.82497 6.68569Z" fill="white"/>
</svg>
